<svg width="75" height="20" viewBox="0 0 75 20" fill="none" xmlns="http://www.w3.org/2000/svg">
<path d="M9.17022 18.7766C9.17022 18.7766 9.47374 12.7992 16.2864 11.1434C16.2864 11.1434 16.9672 10.8904 17.8778 10.8871C17.8778 10.8871 18.4864 10.6523 18.2784 11.6874C18.2784 11.6874 18.1141 16.5259 13.7139 18.7758C13.7139 18.7758 9.79882 21.3315 5.13986 19.0576C5.13986 19.0576 0.55223 17.2041 0.0248013 11.5061C0.0256306 11.5069 -0.134422 10.8121 0.348225 10.8847C0.348225 10.8847 1.24966 10.9135 1.8932 11.0693C1.8932 11.0693 7.81433 11.8448 9.17022 18.7775V18.7766Z" fill="#4B5FEC"/>
<path d="M8.97884 0.160967C9.00439 -0.0536557 9.31667 -0.0536557 9.34224 0.160967L9.55645 1.96146C9.83308 4.28639 11.6711 6.1194 14.0024 6.39526L15.8078 6.6089C16.0231 6.63438 16.0231 6.94583 15.8078 6.97131L14.0024 7.18494C11.6711 7.46081 9.83308 9.29382 9.55645 11.6187L9.34224 13.4192C9.31667 13.6339 9.00439 13.6339 8.97884 13.4192L8.76461 11.6187C8.488 9.29382 6.64993 7.46081 4.31863 7.18494L2.51322 6.97131C2.298 6.94583 2.298 6.63438 2.51322 6.6089L4.31863 6.39526C6.64993 6.1194 8.488 4.28639 8.76461 1.96146L8.97884 0.160967Z" fill="#4B5FEC"/>
<path d="M30.9662 8.95055C30.6633 7.97372 29.4682 6.91266 27.987 6.94634C26.9939 6.96319 26.3207 7.58634 26.3207 8.20951C26.3207 8.91687 26.6909 9.42214 28.4751 9.8095L30.1414 10.1969C31.9761 10.5842 33.0701 11.6116 33.0701 13.279C33.0701 15.5695 30.8988 16.8664 28.5424 16.8664C25.7989 16.8664 23.6782 15.1484 23.2405 13.5484L25.3445 12.3695C25.6643 14.0705 27.4653 14.879 28.6602 14.879C29.8721 14.879 30.7137 14.2558 30.7137 13.4642C30.7137 12.6558 30.2255 12.3358 28.8454 12.0495L27.2633 11.7126C25.6979 11.3421 23.9812 10.4832 23.9812 8.31056C23.9812 6.02003 26.287 4.95898 28.1049 4.95898C30.7642 4.95898 32.5989 6.67688 33.0364 7.77161L30.9662 8.95055ZM36.8413 16.6305H34.3841V5.17793H36.8413V10.5505L37.0602 10.2306L40.6284 5.17793H43.4561L39.1474 10.9211L43.5739 16.6305H40.6621L37.0097 11.8137L36.8413 11.4937V16.6305ZM43.9255 5.17793H46.7026L49.0422 9.32109L49.16 9.59055L49.2947 9.32109L51.5838 5.17793H54.3272L50.5233 11.4769V16.6305H48.0997V11.7632L43.9255 5.17793ZM55.2458 16.6305V5.17793H63.3416V7.30003H57.7031V9.82634H62.6852V11.9484H57.7031V14.4748H63.3416V16.6305H55.2458ZM72.0338 8.95055C71.7308 7.97372 70.5357 6.91266 69.0547 6.94634C68.0616 6.96319 67.3882 7.58634 67.3882 8.20951C67.3882 8.91687 67.7587 9.42214 69.5427 9.8095L71.209 10.1969C73.0436 10.5842 74.1378 11.6116 74.1378 13.279C74.1378 15.5695 71.9665 16.8664 69.61 16.8664C66.8666 16.8664 64.7457 15.1484 64.3082 13.5484L66.412 12.3695C66.7318 14.0705 68.5328 14.879 69.7279 14.879C70.9398 14.879 71.7813 14.2558 71.7813 13.4642C71.7813 12.6558 71.2932 12.3358 69.913 12.0495L68.3308 11.7126C66.7656 11.3421 65.0487 10.4832 65.0487 8.31056C65.0487 6.02003 67.3546 4.95898 69.1724 4.95898C71.8317 4.95898 73.6664 6.67688 74.104 7.77161L72.0338 8.95055Z" fill="#4B5FEC"/>
</svg>
