<svg width="273" height="48" viewBox="0 0 273 48" fill="none" xmlns="http://www.w3.org/2000/svg">
<path d="M22.0082 45.0639C22.0082 45.0639 22.7366 30.718 39.0867 26.7443C39.0867 26.7443 40.7207 26.1371 42.9061 26.1292C42.9061 26.1292 44.3667 25.5654 43.8674 28.0497C43.8674 28.0497 43.4733 39.6622 32.9128 45.0619C32.9128 45.0619 23.5168 51.1955 12.3355 45.7383C12.3355 45.7383 1.32533 41.2899 0.0595223 27.6146C0.0615126 27.6165 -0.322609 25.9492 0.835728 26.1232C0.835728 26.1232 2.99915 26.1924 4.5436 26.5663C4.5436 26.5663 18.7541 28.4275 22.0082 45.0659V45.0639Z" fill="#F5E9E3"/>
<path d="M21.5501 0.386321C21.6115 -0.128774 22.3609 -0.128774 22.4223 0.386321L22.9364 4.7075C23.6003 10.2873 28.0115 14.6866 33.6065 15.3486L37.9395 15.8613C38.4561 15.9225 38.4561 16.67 37.9395 16.7311L33.6065 17.2439C28.0115 17.9059 23.6003 22.3052 22.9364 27.8849L22.4223 32.2061C22.3609 32.7213 21.6115 32.7213 21.5501 32.2061L21.036 27.8849C20.3722 22.3052 15.9609 17.9059 10.3658 17.2439L6.03289 16.7311C5.51638 16.67 5.51638 15.9225 6.03289 15.8613L10.3658 15.3486C15.9609 14.6866 20.3722 10.2873 21.036 4.7075L21.5501 0.386321Z" fill="#F5E9E3"/>
<path d="M99.0886 16.0973C97.8683 12.163 93.0549 7.88932 87.0889 8.02499C83.0893 8.09285 80.3776 10.6027 80.3776 13.1126C80.3776 15.9617 81.869 17.9967 89.0552 19.5569L95.7665 21.1171C103.156 22.6773 107.562 26.8152 107.562 33.5308C107.562 42.7564 98.8169 47.9798 89.3262 47.9798C78.2758 47.9798 69.7345 41.0605 67.9714 34.6162L76.4457 29.8678C77.7338 36.7191 84.9878 39.9751 89.8005 39.9751C94.6817 39.9751 98.0716 37.4653 98.0716 34.277C98.0716 31.021 96.1053 29.7321 90.5465 28.5789L84.174 27.2222C77.8693 25.7299 70.9548 22.2703 70.9548 13.5196C70.9548 4.29408 80.2421 0.0205078 87.5639 0.0205078C98.2748 0.0205078 105.664 6.93966 107.427 11.3489L99.0886 16.0973ZM122.752 47.0299H112.855V0.902367H122.752V22.5416L123.633 21.2528L138.005 0.902367H149.394L132.04 24.034L149.869 47.0299H138.141L123.43 27.6292L122.752 26.3403V47.0299ZM151.285 0.902367H162.47L171.894 17.5897L172.368 18.6751L172.911 17.5897L182.13 0.902367H193.18L177.859 26.2725V47.0299H168.097V27.4257L151.285 0.902367ZM196.88 47.0299V0.902367H229.488V9.44951H206.777V19.6247H226.844V28.1719H206.777V38.3471H229.488V47.0299H196.88ZM264.497 16.0973C263.277 12.163 258.463 7.88932 252.498 8.02499C248.498 8.09285 245.786 10.6027 245.786 13.1126C245.786 15.9617 247.278 17.9967 254.464 19.5569L261.175 21.1171C268.565 22.6773 272.971 26.8152 272.971 33.5308C272.971 42.7564 264.226 47.9798 254.735 47.9798C243.685 47.9798 235.143 41.0605 233.381 34.6162L241.854 29.8678C243.142 36.7191 250.396 39.9751 255.21 39.9751C260.091 39.9751 263.48 37.4653 263.48 34.277C263.48 31.021 261.514 29.7321 255.955 28.5789L249.583 27.2222C243.278 25.7299 236.363 22.2703 236.363 13.5196C236.363 4.29408 245.651 0.0205078 252.972 0.0205078C263.683 0.0205078 271.073 6.93966 272.835 11.3489L264.497 16.0973Z" fill="#F5E9E3"/>
</svg>
