<svg width="48" height="48" viewBox="0 0 48 48" fill="none" xmlns="http://www.w3.org/2000/svg">
<path d="M0.00348663 47.9972C0.00348663 47.9972 -0.281268 36.9577 6.35196 30.3244C12.9852 23.6911 24.0246 23.976 24.0246 23.976C24.0246 23.976 24.3094 35.0154 17.6762 41.6487C11.0429 48.2821 0.00348663 47.9972 0.00348663 47.9972Z" fill="#4B5FEC"/>
<path d="M23.9771 24.0236C23.9771 24.0236 23.6924 12.9841 30.3256 6.35077C36.9588 -0.282536 47.9982 0.0023365 47.9982 0.0023365C47.9982 0.0023365 48.283 11.0418 41.6498 17.6751C35.0166 24.3084 23.9771 24.0236 23.9771 24.0236Z" fill="#4B5FEC"/>
<path d="M47.9965 47.9972C47.9965 47.9972 48.2813 36.9577 41.648 30.3244C35.0148 23.6911 23.9754 23.976 23.9754 23.976C23.9754 23.976 23.6906 35.0154 30.3238 41.6487C36.9571 48.2821 47.9965 47.9972 47.9965 47.9972Z" fill="#4B5FEC" fill-opacity="0.75"/>
<path d="M24.0229 24.0236C24.0229 24.0236 24.3076 12.9841 17.6744 6.35077C11.0412 -0.282538 0.00178679 0.0023365 0.00178679 0.0023365C0.00178679 0.0023365 -0.283025 11.0418 6.35021 17.6751C12.9834 24.3084 24.0229 24.0236 24.0229 24.0236Z" fill="#4B5FEC" fill-opacity="0.75"/>
</svg>
