<svg width="64" height="64" viewBox="0 0 64 64" fill="none" xmlns="http://www.w3.org/2000/svg">
<path d="M32.0042 31.9687C32.0042 31.9687 31.6254 46.673 40.4512 55.5083C49.277 64.3437 63.9654 63.9642 63.9654 63.9642C63.9654 63.9642 64.3444 49.2601 55.5185 40.4247C46.6927 31.5894 32.0042 31.9687 32.0042 31.9687Z" fill="#4B5FEC"/>
<path d="M31.9979 0.00284576C31.9979 0.00284576 17.2936 -0.376034 8.45828 8.44978C-0.377052 17.2756 0.00239372 31.964 0.00239372 31.964C0.00239372 31.964 14.7065 32.343 23.5419 23.5171C32.3772 14.6913 31.9979 0.00284576 31.9979 0.00284576Z" fill="#4B5FEC"/>
<path d="M0.00254059 31.9687C0.00254059 31.9687 -0.376337 46.673 8.44948 55.5083C17.2753 64.3437 31.9637 63.9642 31.9637 63.9642C31.9637 63.9642 32.3426 49.2601 23.5168 40.4247C14.691 31.5894 0.00254059 31.9687 0.00254059 31.9687Z" fill="#C5DBFF"/>
<path d="M63.9976 0.00284576C63.9976 0.00284576 49.2934 -0.376034 40.458 8.44978C31.6227 17.2756 32.0021 31.964 32.0021 31.964C32.0021 31.964 46.7063 32.343 55.5416 23.5171C64.377 14.6913 63.9976 0.00284576 63.9976 0.00284576Z" fill="#C5DBFF"/>
<path d="M31.1147 0.779859C31.2347 -0.230571 32.7009 -0.230571 32.8209 0.779859L33.8267 9.25645C35.1254 20.202 43.7552 28.8318 54.7007 30.1305L63.1773 31.1363C64.1878 31.2563 64.1878 32.7225 63.1773 32.8425L54.7007 33.8483C43.7552 35.147 35.1254 43.7767 33.8267 54.7222L32.8209 63.1988C32.7009 64.2094 31.2347 64.2094 31.1147 63.1988L30.1089 54.7222C28.8102 43.7767 20.1805 35.147 9.2349 33.8483L0.758308 32.8425C-0.252122 32.7225 -0.252122 31.2563 0.758308 31.1363L9.2349 30.1305C20.1805 28.8318 28.8102 20.202 30.109 9.25645L31.1147 0.779859Z" fill="#2C3BA7"/>
</svg>
