<svg width="64" height="64" viewBox="0 0 64 64" fill="none" xmlns="http://www.w3.org/2000/svg">
<path d="M31.9976 0.0023751C31.9976 0.0023751 32.3769 14.7224 23.5417 23.5672C14.7064 32.412 0.00237257 32.0321 0.00237257 32.0321C0.00237257 32.0321 -0.376988 17.3122 8.45825 8.46743C17.2935 -0.377394 31.9976 0.0023751 31.9976 0.0023751Z" fill="#4B5FEC"/>
<path d="M63.9976 31.9682C63.9976 31.9682 64.3769 46.6882 55.5417 55.533C46.7064 64.3778 32.0024 63.9979 32.0024 63.9979C32.0024 63.9979 31.623 49.278 40.4582 40.4332C49.2935 31.5884 63.9976 31.9682 63.9976 31.9682Z" fill="#4B5FEC"/>
<path d="M31.9555 0.0023751C31.9555 0.0023751 31.5762 14.7224 40.4114 23.5672C49.2467 32.412 63.9508 32.0321 63.9508 32.0321C63.9508 32.0321 64.3301 17.3122 55.4949 8.46743C46.6596 -0.377394 31.9555 0.0023751 31.9555 0.0023751Z" fill="#A2C3FF"/>
<path d="M0.00236893 31.9682C0.00236893 31.9682 -0.376911 46.6882 8.45832 55.533C17.2936 64.3778 31.9976 63.9979 31.9976 63.9979C31.9976 63.9979 32.377 49.278 23.5418 40.4332C14.7065 31.5884 0.00236893 31.9682 0.00236893 31.9682Z" fill="#A2C3FF"/>
</svg>
