<svg width="65" height="64" viewBox="0 0 65 64" fill="none" xmlns="http://www.w3.org/2000/svg">
<path d="M0.758653 32.8548C-0.252846 32.7347 -0.252846 31.2669 0.758653 31.1468L9.24421 30.1399C20.2014 28.8398 28.8402 20.201 30.1403 9.24391L31.1472 0.758353C31.2673 -0.253267 32.7351 -0.253267 32.8552 0.758353L33.862 9.24391C35.1621 20.201 43.801 28.8398 54.7581 30.1399L63.2436 31.1468C64.2552 31.2669 64.2552 32.7347 63.2436 32.8548L54.7581 33.8616C43.801 35.1617 35.1621 43.8006 33.862 54.7578L32.8552 63.2433C32.7351 64.2548 31.2673 64.2548 31.1472 63.2433L30.1403 54.7578C28.8402 43.8006 20.2014 35.1617 9.24421 33.8616L0.758653 32.8548Z" fill="#CFF676"/>
<path d="M0.00240419 32.0036C0.00240419 32.0036 14.7222 31.6244 23.5669 40.4595C32.4116 49.2947 32.0317 63.9986 32.0317 63.9986C32.0317 63.9986 17.312 64.378 8.46735 55.5428C-0.37736 46.7077 0.00240419 32.0036 0.00240419 32.0036Z" fill="#91CF13"/>
<path d="M32.0039 63.9973C32.0039 63.9973 46.7237 64.3766 55.5684 55.5415C64.4131 46.7063 64.0332 32.0024 64.0332 32.0024C64.0332 32.0024 49.3135 31.623 40.4688 40.4582C31.6241 49.2933 32.0039 63.9973 32.0039 63.9973Z" fill="#6FA60A"/>
</svg>
