<svg width="48" height="48" viewBox="0 0 48 48" fill="none" xmlns="http://www.w3.org/2000/svg">
<path d="M0.00189972 0.00178538C0.00189972 0.00178538 -0.282845 11.0409 6.35022 17.674C12.9833 24.307 24.0224 24.0222 24.0224 24.0222C24.0224 24.0222 24.3072 12.9831 17.6741 6.35006C11.0411 -0.283021 0.00189972 0.00178538 0.00189972 0.00178538Z" fill="#CFF676"/>
<path d="M23.9764 23.9744C23.9764 23.9744 23.6916 35.0136 30.3247 41.6466C36.9578 48.2797 47.9969 47.9948 47.9969 47.9948C47.9969 47.9948 48.2817 36.9558 41.6486 30.3227C35.0156 23.6896 23.9764 23.9744 23.9764 23.9744Z" fill="#CFF676"/>
<path d="M0.00434113 47.9953C0.00434113 47.9953 -0.280404 36.9562 6.35266 30.3231C12.9857 23.69 24.0248 23.9749 24.0248 23.9749C24.0248 23.9749 24.3096 35.014 17.6766 41.647C11.0435 48.2801 0.00434113 47.9953 0.00434113 47.9953Z" fill="#CFF676" fill-opacity="0.55"/>
<path d="M23.9774 24.0226C23.9774 24.0226 23.6926 12.9835 30.3257 6.35045C36.9587 -0.282609 47.9979 0.00225639 47.9979 0.00225639C47.9979 0.00225639 48.2827 11.0413 41.6496 17.6744C35.0165 24.3074 23.9774 24.0226 23.9774 24.0226Z" fill="#CFF676" fill-opacity="0.55"/>
</svg>
