<svg width="64" height="64" viewBox="0 0 64 64" fill="none" xmlns="http://www.w3.org/2000/svg">
<path d="M0.00242233 0.00531018C0.00242233 0.00531018 -0.37724 14.724 8.46695 23.5681C17.3111 32.4121 32.0301 32.0323 32.0301 32.0323C32.0301 32.0323 32.4099 17.3136 23.5657 8.46962C14.7215 -0.374429 0.00242233 0.00531018 0.00242233 0.00531018Z" fill="#D74BEC"/>
<path d="M31.9678 31.9692C31.9678 31.9692 31.5881 46.6879 40.4323 55.5319C49.2765 64.3759 63.9955 63.9961 63.9955 63.9961C63.9955 63.9961 64.3752 49.2775 55.531 40.4335C46.6868 31.5894 31.9678 31.9692 31.9678 31.9692Z" fill="#D74BEC"/>
<path d="M0.0046196 63.9927C0.0046196 63.9927 -0.375044 49.274 8.46915 40.43C17.3133 31.586 32.0323 31.9658 32.0323 31.9658C32.0323 31.9658 32.4121 46.6844 23.5679 55.5284C14.7237 64.3725 0.0046196 63.9927 0.0046196 63.9927Z" fill="#D74BEC" fill-opacity="0.55"/>
<path d="M31.97 32.0289C31.97 32.0289 31.5903 17.3101 40.4345 8.46613C49.2787 -0.377889 63.9977 0.00192642 63.9977 0.00192642C63.9977 0.00192642 64.3774 14.7205 55.5332 23.5646C46.689 32.4086 31.97 32.0289 31.97 32.0289Z" fill="#D74BEC" fill-opacity="0.55"/>
</svg>
