<svg width="62" height="64" viewBox="0 0 62 64" fill="none" xmlns="http://www.w3.org/2000/svg">
<path fill-rule="evenodd" clip-rule="evenodd" d="M3.8356 36.3269C7.16139 34.4009 7.16139 29.5991 3.8356 27.6731L2.49522 26.8969C0.109128 25.5152 -0.707993 22.4626 0.668732 20.0736L5.35568 11.9404C6.73555 9.54595 9.79622 8.72503 12.1891 10.1076L13.4954 10.8623C16.8278 12.7876 20.9948 10.3839 20.9967 6.53533L20.9975 4.99756C20.9988 2.23709 23.237 0 25.9975 0H35.3575C38.118 0 40.3562 2.23709 40.3575 4.99756L40.3583 6.53529C40.3601 10.3839 44.5272 12.7875 47.8596 10.8622L49.1657 10.1076C51.5587 8.72503 54.6193 9.54595 55.9992 11.9404L60.6862 20.0735C62.0629 22.4626 61.2458 25.5152 58.8597 26.8969L57.5193 27.6731C54.1935 29.5991 54.1935 34.4009 57.5193 36.3269L58.8597 37.1031C61.2458 38.4848 62.063 41.5374 60.6862 43.9265L55.9992 52.0596C54.6193 54.4541 51.5587 55.275 49.1657 53.8925L47.8596 53.1378C44.5272 51.2125 40.3601 53.6161 40.3583 57.4647L40.3575 59.0024C40.3562 61.7629 38.118 64 35.3575 64H25.9975C23.237 64 20.9988 61.7629 20.9975 59.0024L20.9967 57.4647C20.9948 53.6161 16.8278 51.2125 13.4954 53.1378L12.1891 53.8925C9.79622 55.275 6.73555 54.4541 5.35568 52.0596L0.668729 43.9264C-0.707994 41.5374 0.109127 38.4848 2.49522 37.1031L3.8356 36.3269Z" fill="#D74BEC"/>
</svg>
