<svg width="138" height="139" viewBox="0 0 138 139" fill="none" xmlns="http://www.w3.org/2000/svg">
<path fill-rule="evenodd" clip-rule="evenodd" d="M21.4032 72.6163C23.8886 71.1701 23.8886 67.5799 21.4032 66.1337L1.86469 54.7652C0.0824687 53.7282 -0.528189 51.4469 0.497679 49.6583L17.6491 19.754C18.6833 17.9508 20.9869 17.333 22.7847 18.3766L42.2418 29.6716C44.7411 31.1224 47.8731 29.3201 47.8745 26.4303L47.8855 3.74818C47.8865 1.67782 49.5651 0 51.6355 0H85.9016C87.972 0 89.6506 1.67782 89.6516 3.74818L89.6626 26.4302C89.664 29.3201 92.796 31.1224 95.2953 29.6715L114.752 18.3766C116.55 17.333 118.854 17.9508 119.888 19.754L137.039 49.6582C138.065 51.4469 137.455 53.7282 135.672 54.7652L116.134 66.1337C113.648 67.5799 113.648 71.1701 116.134 72.6163L135.672 83.9848C137.455 85.0218 138.065 87.3031 137.039 89.0918L119.888 118.996C118.854 120.799 116.55 121.417 114.752 120.373L95.2953 109.079C92.796 107.628 89.664 109.43 89.6626 112.32L89.6516 135.002C89.6506 137.072 87.972 138.75 85.9016 138.75H51.6355C49.5651 138.75 47.8865 137.072 47.8855 135.002L47.8745 112.32C47.8731 109.43 44.7411 107.628 42.2418 109.078L22.7847 120.373C20.9869 121.417 18.6833 120.799 17.6491 118.996L0.497674 89.0917C-0.528191 87.3031 0.0824687 85.0218 1.86469 83.9848L21.4032 72.6163Z" fill="#C584F5"/>
</svg>
